<?xml version="1.0" standalone="no"?>
<!DOCTYPE svg PUBLIC "-//W3C//DTD SVG 20010904//EN"
 "http://www.w3.org/TR/2001/REC-SVG-20010904/DTD/svg10.dtd">
<svg version="1.0" xmlns="http://www.w3.org/2000/svg"
 width="700.000000pt" height="700.000000pt" viewBox="0 0 700.000000 700.000000"
 preserveAspectRatio="xMidYMid meet">
<metadata>
Created by potrace 1.14, written by Peter Selinger 2001-2017
</metadata>
<g transform="translate(0.000000,700.000000) scale(0.100000,-0.100000)"
fill="#000000" stroke="none">
<path d="M0 3500 l0 -3500 3500 0 3500 0 0 3500 0 3500 -3500 0 -3500 0 0
-3500z m6916 3417 c8 -8 12 -6836 4 -6838 -3 0 -1541 -1 -3418 -2 -2233 -1
-3416 1 -3420 8 -8 13 -9 6829 0 6835 10 8 6826 5 6834 -3z"/>
<path d="M862 3408 c-7 -7 -12 -16 -12 -21 0 -4 -12 -34 -26 -65 -15 -31 -34
-75 -44 -97 -10 -22 -43 -93 -74 -158 -31 -65 -56 -120 -56 -122 0 -3 -18 -41
-40 -86 -54 -111 -54 -112 -1 -113 51 -2 54 2 97 111 l29 73 140 0 140 0 40
-93 41 -92 52 0 c29 -1 52 0 52 1 0 0 -24 52 -54 115 -98 209 -142 303 -201
432 -33 70 -62 127 -65 127 -3 0 -11 -5 -18 -12z m64 -284 c24 -54 44 -101 44
-106 0 -4 -45 -8 -99 -8 l-100 0 35 78 c20 42 42 92 50 111 8 19 17 31 20 28
4 -4 26 -50 50 -103z"/>
<path d="M1455 3402 c-20 -3 -20 -10 -20 -327 -1 -179 2 -325 5 -326 3 0 23
-2 45 -2 l40 -2 3 128 c1 70 6 127 10 128 41 6 86 3 96 -6 6 -6 45 -66 86
-133 l75 -121 55 5 c30 3 56 7 56 7 1 1 -41 61 -92 132 -51 72 -93 132 -93
135 0 3 16 15 37 28 56 35 85 86 90 159 9 134 -79 197 -273 198 -55 0 -109 -1
-120 -3z m254 -101 c16 -12 33 -33 38 -48 8 -25 9 -38 4 -86 -2 -20 -34 -54
-65 -71 -15 -8 -56 -14 -92 -14 l-64 0 0 122 0 122 75 -2 c57 -2 82 -8 104
-23z"/>
<path d="M2079 3405 c0 0 -2 -19 -5 -41 l-5 -41 106 2 c58 1 109 -3 112 -8 3
-5 5 -134 5 -287 -1 -294 -1 -294 44 -285 11 2 27 4 36 4 16 1 18 23 17 282 0
155 3 284 6 287 3 3 52 6 108 7 l102 0 3 40 3 41 -266 0 c-146 0 -265 -1 -266
-1z"/>
<path d="M1115 2352 c-6 -4 -10 -103 -11 -257 -1 -137 -4 -285 -6 -328 l-5
-78 50 3 49 3 -1 235 -1 235 26 -30 c14 -16 56 -63 93 -104 36 -41 75 -86 86
-100 10 -14 22 -28 25 -31 3 -3 42 -45 85 -95 44 -49 87 -98 97 -109 36 -39
41 -19 43 189 1 110 3 254 4 320 2 66 2 125 2 131 -1 10 -18 11 -86 5 -6 -1
-9 -85 -7 -238 2 -147 0 -234 -6 -228 -21 23 -110 124 -157 179 -27 32 -59 68
-70 81 -11 12 -60 68 -109 123 -48 56 -89 102 -90 102 0 0 -5 -4 -11 -8z"/>
<path d="M2052 2335 c-85 -44 -127 -138 -96 -215 21 -50 38 -65 134 -122 97
-58 117 -76 131 -118 14 -39 -12 -94 -52 -110 -42 -18 -133 -6 -192 24 -27 15
-51 26 -53 26 -2 0 -4 -22 -4 -49 l0 -49 63 -23 c76 -29 175 -31 225 -5 90 47
134 154 98 240 -19 46 -56 78 -160 139 -94 55 -112 78 -101 133 14 76 118 88
226 27 5 -3 29 64 29 81 0 13 -78 38 -135 42 -51 5 -68 2 -113 -21z"/>
<path d="M664 2018 l0 -328 48 0 48 0 0 329 0 329 -48 -2 -48 -1 0 -327z"/>
<path d="M2530 2305 l0 -41 108 1 107 0 0 -288 0 -287 50 0 50 0 -2 272 c-1
150 1 280 3 289 4 13 21 15 109 14 90 -2 105 0 106 14 0 9 2 28 4 42 l3 26
-269 -1 -269 0 0 -41z"/>
<path d="M3320 2340 c-1 -3 -2 -150 -3 -327 l-2 -323 50 0 50 0 0 329 0 329
-47 -2 c-27 0 -48 -3 -48 -6z"/>
<path d="M3660 2305 l0 -41 108 0 107 1 0 -288 0 -287 50 0 51 0 -2 278 c0
152 3 282 8 288 5 7 45 10 108 9 68 -2 100 1 101 9 0 6 2 25 4 42 l3 31 -269
-1 -269 0 0 -41z"/>
<path d="M4428 2342 c-14 -3 -11 -15 19 -80 56 -124 66 -147 158 -357 48 -110
91 -208 97 -218 13 -24 29 -10 47 40 8 21 22 56 32 78 119 266 229 528 225
532 -12 12 -90 6 -98 -8 -4 -8 -41 -97 -82 -199 -95 -236 -106 -263 -111 -259
-2 2 -39 90 -83 194 -132 313 -116 284 -154 282 -19 -1 -41 -3 -50 -5z"/>
<path d="M5189 2343 c0 -1 -1 -16 -1 -33 0 -16 1 -34 1 -38 1 -5 45 -8 99 -7
53 1 102 0 108 -2 7 -3 10 -93 10 -288 l-1 -285 47 0 c32 0 48 4 48 13 1 6 2
136 3 287 l2 275 108 0 107 0 0 32 c0 18 0 36 0 41 0 7 -529 12 -531 5z"/>
<path d="M5996 2341 c-2 -3 -2 -15 0 -26 5 -29 5 -576 0 -602 l-5 -23 194 0
193 0 4 40 4 40 -142 0 c-105 0 -143 3 -146 13 -4 10 -3 187 1 208 1 3 51 5
111 4 l110 -1 0 38 c0 23 -5 38 -12 39 -7 0 -57 0 -110 0 -54 -1 -98 2 -99 6
-3 30 -5 170 -2 179 3 8 46 11 134 10 l129 -1 0 33 c0 17 0 35 0 40 0 8 -359
11 -364 3z"/>
<path d="M884 1279 c-104 -19 -198 -94 -247 -199 -26 -54 -31 -76 -31 -140 1
-97 15 -146 63 -210 68 -90 151 -132 261 -132 65 1 154 26 193 56 12 9 20 33
24 67 l6 52 -36 -27 c-118 -90 -296 -79 -364 22 -47 68 -66 185 -43 258 48
148 213 214 358 143 l50 -25 11 37 c15 49 16 46 -27 68 -61 31 -145 43 -218
30z"/>
<path d="M2960 1279 c-105 -23 -203 -101 -247 -196 -65 -140 -26 -324 88 -414
85 -67 212 -90 315 -55 76 25 103 52 110 109 l5 48 -50 -34 c-136 -94 -309
-62 -374 68 -34 69 -39 181 -9 247 57 130 216 185 343 119 22 -12 43 -21 48
-21 5 0 13 18 19 40 9 38 9 41 -16 54 -69 35 -167 50 -232 35z"/>
<path d="M4502 1274 c-336 -87 -357 -557 -30 -663 49 -16 152 -17 208 -1 50
14 119 47 121 58 7 33 4 252 -2 253 -5 1 -18 1 -29 1 -63 0 -59 7 -57 -104 l1
-103 -29 -14 c-17 -8 -60 -16 -96 -17 -109 -5 -194 47 -238 146 -27 60 -24
177 7 236 62 122 216 167 355 106 26 -12 51 -22 55 -23 4 -1 12 16 18 37 10
37 9 40 -17 56 -64 39 -184 54 -267 32z"/>
<path d="M5320 1276 c-75 -20 -118 -46 -169 -102 -65 -71 -93 -145 -92 -241 1
-125 46 -216 138 -281 156 -110 388 -47 478 128 30 60 38 101 37 187 -4 208
-196 359 -392 309z m165 -95 c46 -20 88 -66 112 -120 25 -57 22 -185 -5 -241
-44 -91 -115 -140 -205 -141 -143 -2 -237 111 -231 279 2 64 50 166 96 201 63
50 151 58 233 22z"/>
<path d="M1475 1273 l-50 -4 0 -328 0 -329 50 2 50 1 0 150 0 150 160 1 c88 1
165 -2 171 -5 7 -4 10 -56 10 -151 l-1 -145 48 -2 47 -2 0 332 0 332 -50 -3
-50 -4 3 -136 2 -137 -170 0 -170 0 0 143 c1 78 1 141 0 140 0 -1 -22 -3 -50
-5z"/>
<path d="M2344 1272 l-41 -3 0 -330 0 -329 47 1 48 2 0 329 c0 180 -3 329 -7
331 -3 1 -25 1 -47 -1z"/>
<path d="M3699 1233 c-12 -27 -30 -68 -41 -93 -49 -107 -117 -254 -192 -414
-25 -54 -46 -102 -46 -106 0 -13 88 -10 97 3 5 7 25 49 44 94 l34 83 136 -1
137 -1 42 -94 c24 -52 48 -94 54 -95 21 -2 81 3 85 7 3 2 -16 48 -42 102 -113
239 -176 374 -217 465 -25 53 -51 97 -58 97 -7 0 -22 -21 -33 -47z m80 -235
c22 -53 42 -103 43 -110 2 -9 -21 -12 -87 -13 -49 -1 -93 0 -97 2 -7 4 1 27
56 147 20 44 38 77 40 75 2 -2 22 -48 45 -101z"/>
</g>
</svg>
